solid SHAPR3D_SOLID
facet normal -9.486769e-16 6.320231e-16 1.000000e+00
outer loop
vertex 1.640000e+01 2.860000e+01 1.000000e+00
vertex 1.800000e+01 2.860000e+01 1.000000e+00
vertex 1.800000e+01 1.130000e+02 1.000000e+00
endloop
endfacet
facet normal 0.000000e+00 6.140387e-16 1.000000e+00
outer loop
vertex 1.800000e+01 1.130000e+02 1.000000e+00
vertex 1.640000e+01 1.130000e+02 1.000000e+00
vertex 1.640000e+01 2.860000e+01 1.000000e+00
endloop
endfacet
facet normal -0.000000e+00 1.000000e+00 0.000000e+00
outer loop
vertex 1.640000e+01 2.860000e+01 3.370000e+01
vertex 1.800000e+01 2.860000e+01 3.370000e+01
vertex 1.800000e+01 2.860000e+01 1.000000e+00
endloop
endfacet
facet normal 0.000000e+00 1.000000e+00 0.000000e+00
outer loop
vertex 1.800000e+01 2.860000e+01 1.000000e+00
vertex 1.640000e+01 2.860000e+01 1.000000e+00
vertex 1.640000e+01 2.860000e+01 3.370000e+01
endloop
endfacet
facet normal 1.000000e+00 1.445603e-15 0.000000e+00
outer loop
vertex 1.640000e+01 2.860000e+01 3.370000e+01
vertex 1.640000e+01 2.860000e+01 1.000000e+00
vertex 1.640000e+01 3.100000e+01 3.000000e+00
endloop
endfacet
facet normal 1.000000e+00 2.538620e-16 1.734723e-15
outer loop
vertex 1.640000e+01 1.130000e+02 1.000000e+00
vertex 1.640000e+01 1.130000e+02 3.000000e+00
vertex 1.640000e+01 3.100000e+01 3.000000e+00
endloop
endfacet
facet normal 1.000000e+00 2.466431e-16 1.438752e-15
outer loop
vertex 1.640000e+01 3.100000e+01 3.000000e+00
vertex 1.640000e+01 2.860000e+01 1.000000e+00
vertex 1.640000e+01 1.130000e+02 1.000000e+00
endloop
endfacet
facet normal 1.000000e+00 0.000000e+00 -1.130113e-16
outer loop
vertex 1.640000e+01 3.100000e+01 3.000000e+00
vertex 1.640000e+01 3.100000e+01 3.370000e+01
vertex 1.640000e+01 2.860000e+01 3.370000e+01
endloop
endfacet
facet normal 0.000000e+00 2.009741e-16 1.000000e+00
outer loop
vertex 1.640000e+01 1.130000e+02 3.000000e+00
vertex 1.480000e+01 1.130000e+02 3.000000e+00
vertex 1.480000e+01 3.100000e+01 3.000000e+00
endloop
endfacet
facet normal -0.000000e+00 2.009741e-16 1.000000e+00
outer loop
vertex 1.480000e+01 3.100000e+01 3.000000e+00
vertex 1.640000e+01 3.100000e+01 3.000000e+00
vertex 1.640000e+01 1.130000e+02 3.000000e+00
endloop
endfacet
facet normal 0.000000e+00 1.000000e+00 -1.130113e-16
outer loop
vertex 1.480000e+01 3.100000e+01 3.370000e+01
vertex 1.640000e+01 3.100000e+01 3.370000e+01
vertex 1.640000e+01 3.100000e+01 3.000000e+00
endloop
endfacet
facet normal 0.000000e+00 1.000000e+00 -1.130113e-16
outer loop
vertex 1.640000e+01 3.100000e+01 3.000000e+00
vertex 1.480000e+01 3.100000e+01 3.000000e+00
vertex 1.480000e+01 3.100000e+01 3.370000e+01
endloop
endfacet
facet normal -1.000000e+00 -2.622256e-16 -1.524046e-16
outer loop
vertex 1.480000e+01 1.130000e+02 -1.500000e+00
vertex 1.480000e+01 2.700000e+01 -1.500000e+00
vertex 1.480000e+01 3.100000e+01 3.000000e+00
endloop
endfacet
facet normal -1.000000e+00 -4.336809e-16 4.901084e-32
outer loop
vertex 1.480000e+01 2.700000e+01 3.370000e+01
vertex 1.480000e+01 3.100000e+01 3.370000e+01
vertex 1.480000e+01 3.100000e+01 3.000000e+00
endloop
endfacet
facet normal -1.000000e+00 -4.336809e-16 0.000000e+00
outer loop
vertex 1.480000e+01 3.100000e+01 3.000000e+00
vertex 1.480000e+01 2.700000e+01 -1.500000e+00
vertex 1.480000e+01 2.700000e+01 3.370000e+01
endloop
endfacet
facet normal -1.000000e+00 -2.538620e-16 -7.828984e-31
outer loop
vertex 1.480000e+01 3.100000e+01 3.000000e+00
vertex 1.480000e+01 1.130000e+02 3.000000e+00
vertex 1.480000e+01 1.130000e+02 -1.500000e+00
endloop
endfacet
facet normal 0.000000e+00 0.000000e+00 1.000000e+00
outer loop
vertex 1.480000e+01 3.100000e+01 3.370000e+01
vertex 1.480000e+01 2.700000e+01 3.370000e+01
vertex 1.640000e+01 2.860000e+01 3.370000e+01
endloop
endfacet
facet normal -0.000000e+00 0.000000e+00 1.000000e+00
outer loop
vertex 1.480000e+01 2.700000e+01 3.370000e+01
vertex 2.600000e+01 2.700000e+01 3.370000e+01
vertex 1.800000e+01 2.860000e+01 3.370000e+01
endloop
endfacet
facet normal 0.000000e+00 0.000000e+00 1.000000e+00
outer loop
vertex 1.800000e+01 2.860000e+01 3.370000e+01
vertex 1.640000e+01 2.860000e+01 3.370000e+01
vertex 1.480000e+01 2.700000e+01 3.370000e+01
endloop
endfacet
facet normal 0.000000e+00 0.000000e+00 1.000000e+00
outer loop
vertex 2.600000e+01 3.300000e+01 3.370000e+01
vertex 1.800000e+01 3.300000e+01 3.370000e+01
vertex 1.800000e+01 2.860000e+01 3.370000e+01
endloop
endfacet
facet normal -0.000000e+00 0.000000e+00 1.000000e+00
outer loop
vertex 1.800000e+01 2.860000e+01 3.370000e+01
vertex 2.600000e+01 2.700000e+01 3.370000e+01
vertex 2.600000e+01 3.300000e+01 3.370000e+01
endloop
endfacet
facet normal 0.000000e+00 -0.000000e+00 1.000000e+00
outer loop
vertex 1.640000e+01 2.860000e+01 3.370000e+01
vertex 1.640000e+01 3.100000e+01 3.370000e+01
vertex 1.480000e+01 3.100000e+01 3.370000e+01
endloop
endfacet
facet normal 0.000000e+00 1.000000e+00 5.551115e-15
outer loop
vertex 1.480000e+01 1.130000e+02 -1.500000e+00
vertex 1.640000e+01 1.130000e+02 1.000000e+00
vertex 1.800000e+01 1.130000e+02 1.000000e+00
endloop
endfacet
facet normal -0.000000e+00 1.000000e+00 0.000000e+00
outer loop
vertex 1.480000e+01 1.130000e+02 3.000000e+00
vertex 1.640000e+01 1.130000e+02 3.000000e+00
vertex 1.640000e+01 1.130000e+02 1.000000e+00
endloop
endfacet
facet normal -3.469447e-15 1.000000e+00 0.000000e+00
outer loop
vertex 2.600000e+01 1.130000e+02 3.000000e+00
vertex 2.600000e+01 1.130000e+02 -1.500000e+00
vertex 1.800000e+01 1.130000e+02 1.000000e+00
endloop
endfacet
facet normal 3.854941e-15 1.000000e+00 3.083953e-15
outer loop
vertex 1.640000e+01 1.130000e+02 1.000000e+00
vertex 1.480000e+01 1.130000e+02 -1.500000e+00
vertex 1.480000e+01 1.130000e+02 3.000000e+00
endloop
endfacet
facet normal -1.239088e-15 1.000000e+00 7.137148e-15
outer loop
vertex 1.800000e+01 1.130000e+02 1.000000e+00
vertex 2.600000e+01 1.130000e+02 -1.500000e+00
vertex 1.480000e+01 1.130000e+02 -1.500000e+00
endloop
endfacet
facet normal -3.469447e-15 1.000000e+00 0.000000e+00
outer loop
vertex 1.800000e+01 1.130000e+02 1.000000e+00
vertex 1.800000e+01 1.130000e+02 3.000000e+00
vertex 2.600000e+01 1.130000e+02 3.000000e+00
endloop
endfacet
facet normal 1.205633e-13 1.000000e+00 -0.000000e+00
outer loop
vertex 1.800000e+01 3.300000e+01 8.000000e+00
vertex 1.800000e+01 3.300000e+01 3.370000e+01
vertex 2.600000e+01 3.300000e+01 3.370000e+01
endloop
endfacet
facet normal 1.205633e-13 1.000000e+00 0.000000e+00
outer loop
vertex 2.600000e+01 3.300000e+01 3.370000e+01
vertex 2.600000e+01 3.300000e+01 8.000000e+00
vertex 1.800000e+01 3.300000e+01 8.000000e+00
endloop
endfacet
facet normal 0.000000e+00 0.000000e+00 1.000000e+00
outer loop
vertex 2.600000e+01 3.600000e+01 8.000000e+00
vertex 1.800000e+01 3.600000e+01 8.000000e+00
vertex 1.800000e+01 3.300000e+01 8.000000e+00
endloop
endfacet
facet normal -0.000000e+00 0.000000e+00 1.000000e+00
outer loop
vertex 1.800000e+01 3.300000e+01 8.000000e+00
vertex 2.600000e+01 3.300000e+01 8.000000e+00
vertex 2.600000e+01 3.600000e+01 8.000000e+00
endloop
endfacet
facet normal -8.847090e-14 -1.000000e+00 0.000000e+00
outer loop
vertex 2.600000e+01 3.600000e+01 8.000000e+00
vertex 2.600000e+01 3.600000e+01 3.370000e+01
vertex 1.800000e+01 3.600000e+01 3.370000e+01
endloop
endfacet
facet normal -8.847090e-14 -1.000000e+00 -0.000000e+00
outer loop
vertex 1.800000e+01 3.600000e+01 3.370000e+01
vertex 1.800000e+01 3.600000e+01 8.000000e+00
vertex 2.600000e+01 3.600000e+01 8.000000e+00
endloop
endfacet
facet normal -1.000000e+00 -2.877503e-16 -9.454654e-17
outer loop
vertex 1.800000e+01 1.130000e+02 1.000000e+00
vertex 1.800000e+01 2.860000e+01 1.000000e+00
vertex 1.800000e+01 4.000000e+01 3.000000e+00
endloop
endfacet
facet normal -1.000000e+00 7.864080e-14 -8.313456e-14
outer loop
vertex 1.800000e+01 2.860000e+01 1.000000e+00
vertex 1.800000e+01 3.300000e+01 8.000000e+00
vertex 1.800000e+01 3.600000e+01 8.000000e+00
endloop
endfacet
facet normal -1.000000e+00 -8.673617e-16 -0.000000e+00
outer loop
vertex 1.800000e+01 4.000000e+01 3.370000e+01
vertex 1.800000e+01 4.000000e+01 3.000000e+00
vertex 1.800000e+01 3.600000e+01 8.000000e+00
endloop
endfacet
facet normal -1.000000e+00 -3.736327e-16 3.949832e-16
outer loop
vertex 1.800000e+01 3.600000e+01 8.000000e+00
vertex 1.800000e+01 4.000000e+01 3.000000e+00
vertex 1.800000e+01 2.860000e+01 1.000000e+00
endloop
endfacet
facet normal -1.000000e+00 -2.851600e-16 0.000000e+00
outer loop
vertex 1.800000e+01 4.000000e+01 3.000000e+00
vertex 1.800000e+01 1.130000e+02 3.000000e+00
vertex 1.800000e+01 1.130000e+02 1.000000e+00
endloop
endfacet
facet normal -1.000000e+00 -5.440724e-14 2.128946e-31
outer loop
vertex 1.800000e+01 2.860000e+01 3.370000e+01
vertex 1.800000e+01 3.300000e+01 3.370000e+01
vertex 1.800000e+01 3.300000e+01 8.000000e+00
endloop
endfacet
facet normal -1.000000e+00 -5.378752e-14 1.060993e-16
outer loop
vertex 1.800000e+01 3.300000e+01 8.000000e+00
vertex 1.800000e+01 2.860000e+01 1.000000e+00
vertex 1.800000e+01 2.860000e+01 3.370000e+01
endloop
endfacet
facet normal -1.000000e+00 -8.673617e-16 0.000000e+00
outer loop
vertex 1.800000e+01 3.600000e+01 8.000000e+00
vertex 1.800000e+01 3.600000e+01 3.370000e+01
vertex 1.800000e+01 4.000000e+01 3.370000e+01
endloop
endfacet
facet normal -0.000000e+00 1.000000e+00 0.000000e+00
outer loop
vertex 1.800000e+01 4.000000e+01 3.370000e+01
vertex 2.600000e+01 4.000000e+01 3.370000e+01
vertex 2.600000e+01 4.000000e+01 3.000000e+00
endloop
endfacet
facet normal 0.000000e+00 1.000000e+00 0.000000e+00
outer loop
vertex 2.600000e+01 4.000000e+01 3.000000e+00
vertex 1.800000e+01 4.000000e+01 3.000000e+00
vertex 1.800000e+01 4.000000e+01 3.370000e+01
endloop
endfacet
facet normal 0.000000e+00 0.000000e+00 1.000000e+00
outer loop
vertex 2.600000e+01 4.000000e+01 3.370000e+01
vertex 1.800000e+01 4.000000e+01 3.370000e+01
vertex 1.800000e+01 3.600000e+01 3.370000e+01
endloop
endfacet
facet normal -0.000000e+00 0.000000e+00 1.000000e+00
outer loop
vertex 1.800000e+01 3.600000e+01 3.370000e+01
vertex 2.600000e+01 3.600000e+01 3.370000e+01
vertex 2.600000e+01 4.000000e+01 3.370000e+01
endloop
endfacet
facet normal -2.102364e-30 6.356692e-16 1.000000e+00
outer loop
vertex 2.600000e+01 4.000000e+01 3.000000e+00
vertex 2.600000e+01 1.130000e+02 3.000000e+00
vertex 1.800000e+01 1.130000e+02 3.000000e+00
endloop
endfacet
facet normal -2.656295e-15 3.445684e-16 1.000000e+00
outer loop
vertex 1.800000e+01 1.130000e+02 3.000000e+00
vertex 1.800000e+01 4.000000e+01 3.000000e+00
vertex 2.600000e+01 4.000000e+01 3.000000e+00
endloop
endfacet
facet normal 1.000000e+00 -1.202742e-13 -1.461794e-13
outer loop
vertex 2.600000e+01 4.000000e+01 3.000000e+00
vertex 2.600000e+01 3.600000e+01 8.000000e+00
vertex 2.600000e+01 3.300000e+01 8.000000e+00
endloop
endfacet
facet normal 1.000000e+00 5.337611e-16 0.000000e+00
outer loop
vertex 2.600000e+01 2.700000e+01 1.000000e+00
vertex 2.600000e+01 4.000000e+01 1.000000e+00
vertex 2.600000e+01 4.000000e+01 3.000000e+00
endloop
endfacet
facet normal 1.000000e+00 1.966020e-14 4.171867e-30
outer loop
vertex 2.600000e+01 2.700000e+01 3.370000e+01
vertex 2.600000e+01 2.700000e+01 1.000000e+00
vertex 2.600000e+01 3.300000e+01 8.000000e+00
endloop
endfacet
facet normal 1.000000e+00 2.376334e-16 -0.000000e+00
outer loop
vertex 2.600000e+01 4.000000e+01 1.000000e+00
vertex 2.600000e+01 1.130000e+02 3.000000e+00
vertex 2.600000e+01 4.000000e+01 3.000000e+00
endloop
endfacet
facet normal 1.000000e+00 -2.371521e-15 1.888433e-14
outer loop
vertex 2.600000e+01 3.300000e+01 8.000000e+00
vertex 2.600000e+01 2.700000e+01 1.000000e+00
vertex 2.600000e+01 4.000000e+01 3.000000e+00
endloop
endfacet
facet normal 1.000000e+00 6.245005e-14 0.000000e+00
outer loop
vertex 2.600000e+01 4.000000e+01 3.370000e+01
vertex 2.600000e+01 3.600000e+01 3.370000e+01
vertex 2.600000e+01 3.600000e+01 8.000000e+00
endloop
endfacet
facet normal 1.000000e+00 2.376334e-16 -0.000000e+00
outer loop
vertex 2.600000e+01 1.130000e+02 -1.500000e+00
vertex 2.600000e+01 1.130000e+02 3.000000e+00
vertex 2.600000e+01 4.000000e+01 1.000000e+00
endloop
endfacet
facet normal 1.000000e+00 6.245005e-14 0.000000e+00
outer loop
vertex 2.600000e+01 3.600000e+01 8.000000e+00
vertex 2.600000e+01 4.000000e+01 3.000000e+00
vertex 2.600000e+01 4.000000e+01 3.370000e+01
endloop
endfacet
facet normal 1.000000e+00 1.966020e-14 -0.000000e+00
outer loop
vertex 2.600000e+01 3.300000e+01 8.000000e+00
vertex 2.600000e+01 3.300000e+01 3.370000e+01
vertex 2.600000e+01 2.700000e+01 3.370000e+01
endloop
endfacet
facet normal 1.000000e+00 2.376334e-16 0.000000e+00
outer loop
vertex 2.600000e+01 4.000000e+01 1.000000e+00
vertex 2.600000e+01 4.000000e+01 -1.500000e+00
vertex 2.600000e+01 1.130000e+02 -1.500000e+00
endloop
endfacet
facet normal 3.097720e-16 -1.000000e+00 0.000000e+00
outer loop
vertex 1.480000e+01 2.700000e+01 3.370000e+01
vertex 1.480000e+01 2.700000e+01 -1.500000e+00
vertex 2.600000e+01 2.700000e+01 1.000000e+00
endloop
endfacet
facet normal -6.758661e-16 -1.000000e+00 1.387779e-15
outer loop
vertex 5.680001e+01 2.700000e+01 -1.500000e+00
vertex 5.680001e+01 2.700000e+01 1.000000e+00
vertex 2.600000e+01 2.700000e+01 1.000000e+00
endloop
endfacet
facet normal -4.956352e-16 -1.000000e+00 3.608224e-15
outer loop
vertex 2.600000e+01 2.700000e+01 1.000000e+00
vertex 1.480000e+01 2.700000e+01 -1.500000e+00
vertex 5.680001e+01 2.700000e+01 -1.500000e+00
endloop
endfacet
facet normal -3.097720e-16 -1.000000e+00 -2.121986e-16
outer loop
vertex 2.600000e+01 2.700000e+01 1.000000e+00
vertex 2.600000e+01 2.700000e+01 3.370000e+01
vertex 1.480000e+01 2.700000e+01 3.370000e+01
endloop
endfacet
facet normal 8.900453e-07 1.000000e+00 -2.877291e-22
outer loop
vertex 5.678844e+01 3.999997e+01 -1.500000e+00
vertex 2.600000e+01 4.000000e+01 -1.500000e+00
vertex 2.600000e+01 4.000000e+01 1.000000e+00
endloop
endfacet
facet normal 8.900453e-07 1.000000e+00 -5.551115e-15
outer loop
vertex 2.600000e+01 4.000000e+01 1.000000e+00
vertex 5.678844e+01 3.999997e+01 1.000000e+00
vertex 5.678844e+01 3.999997e+01 -1.500000e+00
endloop
endfacet
facet normal -8.948053e-04 9.999996e-01 -5.551113e-15
outer loop
vertex 5.678844e+01 3.999997e+01 -1.500000e+00
vertex 5.678844e+01 3.999997e+01 1.000000e+00
vertex 1.552884e+02 4.008811e+01 1.000000e+00
endloop
endfacet
facet normal -8.891634e-04 9.999996e-01 -2.222908e-04
outer loop
vertex 1.552884e+02 4.008811e+01 1.000000e+00
vertex 1.559134e+02 4.008811e+01 -1.500000e+00
vertex 5.678844e+01 3.999997e+01 -1.500000e+00
endloop
endfacet
facet normal 0.000000e+00 0.000000e+00 -1.000000e+00
outer loop
vertex 5.680001e+01 2.700000e+01 -1.500000e+00
vertex 5.678844e+01 3.999997e+01 -1.500000e+00
vertex 1.559134e+02 4.008811e+01 -1.500000e+00
endloop
endfacet
facet normal 0.000000e+00 -0.000000e+00 -1.000000e+00
outer loop
vertex 1.559134e+02 4.008811e+01 -1.500000e+00
vertex 1.668999e+02 2.709802e+01 -1.500000e+00
vertex 5.680001e+01 2.700000e+01 -1.500000e+00
endloop
endfacet
facet normal 0.000000e+00 0.000000e+00 -1.000000e+00
outer loop
vertex 5.680001e+01 2.700000e+01 -1.500000e+00
vertex 1.480000e+01 2.700000e+01 -1.500000e+00
vertex 2.600000e+01 4.000000e+01 -1.500000e+00
endloop
endfacet
facet normal 0.000000e+00 0.000000e+00 -1.000000e+00
outer loop
vertex 2.600000e+01 4.000000e+01 -1.500000e+00
vertex 5.678844e+01 3.999997e+01 -1.500000e+00
vertex 5.680001e+01 2.700000e+01 -1.500000e+00
endloop
endfacet
facet normal 0.000000e+00 0.000000e+00 -1.000000e+00
outer loop
vertex 1.480000e+01 1.130000e+02 -1.500000e+00
vertex 2.600000e+01 1.130000e+02 -1.500000e+00
vertex 2.600000e+01 4.000000e+01 -1.500000e+00
endloop
endfacet
facet normal -0.000000e+00 0.000000e+00 -1.000000e+00
outer loop
vertex 2.600000e+01 4.000000e+01 -1.500000e+00
vertex 1.480000e+01 2.700000e+01 -1.500000e+00
vertex 1.480000e+01 1.130000e+02 -1.500000e+00
endloop
endfacet
facet normal 0.000000e+00 0.000000e+00 -1.000000e+00
outer loop
vertex 1.559134e+02 4.008811e+01 -1.500000e+00
vertex 1.668999e+02 4.008811e+01 -1.500000e+00
vertex 1.668999e+02 2.709802e+01 -1.500000e+00
endloop
endfacet
facet normal 1.000000e+00 0.000000e+00 -0.000000e+00
outer loop
vertex 1.668999e+02 4.008811e+01 -1.500000e+00
vertex 1.668999e+02 4.008811e+01 3.370000e+01
vertex 1.668999e+02 2.709802e+01 3.370000e+01
endloop
endfacet
facet normal 1.000000e+00 0.000000e+00 0.000000e+00
outer loop
vertex 1.668999e+02 2.709802e+01 3.370000e+01
vertex 1.668999e+02 2.709802e+01 -1.500000e+00
vertex 1.668999e+02 4.008811e+01 -1.500000e+00
endloop
endfacet
facet normal 8.902861e-04 -9.999996e-01 -6.417219e-16
outer loop
vertex 5.680001e+01 2.700000e+01 -1.500000e+00
vertex 1.668999e+02 2.709802e+01 -1.500000e+00
vertex 1.567000e+02 2.708894e+01 1.000000e+00
endloop
endfacet
facet normal 8.902861e-04 -9.999996e-01 -1.061152e-16
outer loop
vertex 1.668999e+02 2.709802e+01 3.370000e+01
vertex 1.567000e+02 2.708894e+01 3.370000e+01
vertex 1.567000e+02 2.708894e+01 1.000000e+00
endloop
endfacet
facet normal 8.902861e-04 -9.999996e-01 -9.515214e-21
outer loop
vertex 1.567000e+02 2.708894e+01 1.000000e+00
vertex 1.668999e+02 2.709802e+01 -1.500000e+00
vertex 1.668999e+02 2.709802e+01 3.370000e+01
endloop
endfacet
facet normal 8.902861e-04 -9.999996e-01 1.384696e-15
outer loop
vertex 1.567000e+02 2.708894e+01 1.000000e+00
vertex 5.680001e+01 2.700000e+01 1.000000e+00
vertex 5.680001e+01 2.700000e+01 -1.500000e+00
endloop
endfacet
facet normal 0.000000e+00 1.000000e+00 0.000000e+00
outer loop
vertex 1.668999e+02 4.008811e+01 3.370000e+01
vertex 1.668999e+02 4.008811e+01 -1.500000e+00
vertex 1.556884e+02 4.008811e+01 1.000000e+00
endloop
endfacet
facet normal 0.000000e+00 1.000000e+00 0.000000e+00
outer loop
vertex 1.559134e+02 4.008811e+01 -1.500000e+00
vertex 1.552884e+02 4.008811e+01 1.000000e+00
vertex 1.556884e+02 4.008811e+01 1.000000e+00
endloop
endfacet
facet normal 0.000000e+00 1.000000e+00 0.000000e+00
outer loop
vertex 1.556884e+02 4.008811e+01 1.000000e+00
vertex 1.668999e+02 4.008811e+01 -1.500000e+00
vertex 1.559134e+02 4.008811e+01 -1.500000e+00
endloop
endfacet
facet normal 0.000000e+00 1.000000e+00 0.000000e+00
outer loop
vertex 1.556884e+02 4.008811e+01 1.000000e+00
vertex 1.556884e+02 4.008811e+01 3.370000e+01
vertex 1.668999e+02 4.008811e+01 3.370000e+01
endloop
endfacet
facet normal 0.000000e+00 -0.000000e+00 1.000000e+00
outer loop
vertex 1.668999e+02 2.709802e+01 3.370000e+01
vertex 1.668999e+02 4.008811e+01 3.370000e+01
vertex 1.566982e+02 2.908894e+01 3.370000e+01
endloop
endfacet
facet normal 0.000000e+00 0.000000e+00 1.000000e+00
outer loop
vertex 1.556884e+02 4.008811e+01 3.370000e+01
vertex 1.556982e+02 2.908805e+01 3.370000e+01
vertex 1.566982e+02 2.908894e+01 3.370000e+01
endloop
endfacet
facet normal 0.000000e+00 -0.000000e+00 1.000000e+00
outer loop
vertex 1.566982e+02 2.908894e+01 3.370000e+01
vertex 1.668999e+02 4.008811e+01 3.370000e+01
vertex 1.556884e+02 4.008811e+01 3.370000e+01
endloop
endfacet
facet normal 0.000000e+00 0.000000e+00 1.000000e+00
outer loop
vertex 1.566982e+02 2.908894e+01 3.370000e+01
vertex 1.567000e+02 2.708894e+01 3.370000e+01
vertex 1.668999e+02 2.709802e+01 3.370000e+01
endloop
endfacet
facet normal -9.999996e-01 -8.902861e-04 3.806669e-19
outer loop
vertex 1.556884e+02 4.008811e+01 1.000000e+00
vertex 1.556982e+02 2.908805e+01 1.000000e+00
vertex 1.556982e+02 2.908805e+01 3.370000e+01
endloop
endfacet
facet normal -9.999996e-01 -8.902861e-04 1.272668e-20
outer loop
vertex 1.556982e+02 2.908805e+01 3.370000e+01
vertex 1.556884e+02 4.008811e+01 3.370000e+01
vertex 1.556884e+02 4.008811e+01 1.000000e+00
endloop
endfacet
facet normal 8.902861e-04 -9.999996e-01 4.243973e-16
outer loop
vertex 1.566982e+02 2.908894e+01 3.370000e+01
vertex 1.556982e+02 2.908805e+01 3.370000e+01
vertex 1.556982e+02 2.908805e+01 1.000000e+00
endloop
endfacet
facet normal 8.902861e-04 -9.999996e-01 4.243973e-16
outer loop
vertex 1.556982e+02 2.908805e+01 1.000000e+00
vertex 1.566982e+02 2.908894e+01 1.000000e+00
vertex 1.566982e+02 2.908894e+01 3.370000e+01
endloop
endfacet
facet normal -9.999996e-01 -8.902861e-04 3.759804e-19
outer loop
vertex 1.567000e+02 2.708894e+01 3.370000e+01
vertex 1.566982e+02 2.908894e+01 3.370000e+01
vertex 1.566982e+02 2.908894e+01 1.000000e+00
endloop
endfacet
facet normal -9.999996e-01 -8.902861e-04 -9.199644e-20
outer loop
vertex 1.566982e+02 2.908894e+01 1.000000e+00
vertex 1.567000e+02 2.708894e+01 1.000000e+00
vertex 1.567000e+02 2.708894e+01 3.370000e+01
endloop
endfacet
facet normal 0.000000e+00 0.000000e+00 1.000000e+00
outer loop
vertex 5.579440e+01 3.329993e+01 1.000000e+00
vertex 6.179440e+01 3.330261e+01 1.000000e+00
vertex 6.178977e+01 3.850261e+01 1.000000e+00
endloop
endfacet
facet normal -6.248264e-17 -3.131089e-17 1.000000e+00
outer loop
vertex 1.257944e+02 3.335959e+01 1.000000e+00
vertex 1.567000e+02 2.708894e+01 1.000000e+00
vertex 1.556982e+02 2.908805e+01 1.000000e+00
endloop
endfacet
facet normal 1.284634e-19 -2.892012e-16 1.000000e+00
outer loop
vertex 6.178977e+01 3.850261e+01 1.000000e+00
vertex 5.678844e+01 3.999997e+01 1.000000e+00
vertex 5.578977e+01 3.849995e+01 1.000000e+00
endloop
endfacet
facet normal -1.126853e-16 1.589078e-15 1.000000e+00
outer loop
vertex 5.678844e+01 3.999997e+01 1.000000e+00
vertex 2.600000e+01 4.000000e+01 1.000000e+00
vertex 3.176142e+01 3.849816e+01 1.000000e+00
endloop
endfacet
facet normal -4.956350e-16 -4.412571e-19 1.000000e+00
outer loop
vertex 1.552884e+02 4.008811e+01 1.000000e+00
vertex 1.517897e+02 3.858274e+01 1.000000e+00
vertex 1.517944e+02 3.338274e+01 1.000000e+00
endloop
endfacet
facet normal 0.000000e+00 0.000000e+00 1.000000e+00
outer loop
vertex 1.197944e+02 3.335425e+01 1.000000e+00
vertex 1.257944e+02 3.335959e+01 1.000000e+00
vertex 1.257897e+02 3.855959e+01 1.000000e+00
endloop
endfacet
facet normal 2.570894e-19 -2.887716e-16 1.000000e+00
outer loop
vertex 5.678844e+01 3.999997e+01 1.000000e+00
vertex 9.378976e+01 3.853110e+01 1.000000e+00
vertex 1.197897e+02 3.855425e+01 1.000000e+00
endloop
endfacet
facet normal -3.593161e-19 4.035961e-16 1.000000e+00
outer loop
vertex 1.556982e+02 2.908805e+01 1.000000e+00
vertex 1.517944e+02 3.338274e+01 1.000000e+00
vertex 1.257944e+02 3.335959e+01 1.000000e+00
endloop
endfacet
facet normal 0.000000e+00 0.000000e+00 1.000000e+00
outer loop
vertex 6.178977e+01 3.850261e+01 1.000000e+00
vertex 5.578977e+01 3.849995e+01 1.000000e+00
vertex 5.579440e+01 3.329993e+01 1.000000e+00
endloop
endfacet
facet normal 0.000000e+00 2.021366e-15 1.000000e+00
outer loop
vertex 2.600000e+01 4.000000e+01 1.000000e+00
vertex 2.926142e+01 3.849816e+01 1.000000e+00
vertex 3.176142e+01 3.849816e+01 1.000000e+00
endloop
endfacet
facet normal 0.000000e+00 0.000000e+00 1.000000e+00
outer loop
vertex 1.556982e+02 2.908805e+01 1.000000e+00
vertex 1.556884e+02 4.008811e+01 1.000000e+00
vertex 1.552884e+02 4.008811e+01 1.000000e+00
endloop
endfacet
facet normal -1.240730e-17 -8.954575e-16 1.000000e+00
outer loop
vertex 1.552884e+02 4.008811e+01 1.000000e+00
vertex 5.678844e+01 3.999997e+01 1.000000e+00
vertex 1.257897e+02 3.855959e+01 1.000000e+00
endloop
endfacet
facet normal 2.570894e-19 -2.887716e-16 1.000000e+00
outer loop
vertex 1.197897e+02 3.855425e+01 1.000000e+00
vertex 1.257897e+02 3.855959e+01 1.000000e+00
vertex 5.678844e+01 3.999997e+01 1.000000e+00
endloop
endfacet
facet normal 0.000000e+00 0.000000e+00 1.000000e+00
outer loop
vertex 1.567000e+02 2.708894e+01 1.000000e+00
vertex 1.566982e+02 2.908894e+01 1.000000e+00
vertex 1.556982e+02 2.908805e+01 1.000000e+00
endloop
endfacet
facet normal 0.000000e+00 0.000000e+00 1.000000e+00
outer loop
vertex 8.779439e+01 3.332576e+01 1.000000e+00
vertex 9.379439e+01 3.333110e+01 1.000000e+00
vertex 9.378976e+01 3.853110e+01 1.000000e+00
endloop
endfacet
facet normal -2.452143e-19 2.754330e-16 1.000000e+00
outer loop
vertex 1.567000e+02 2.708894e+01 1.000000e+00
vertex 1.197944e+02 3.335425e+01 1.000000e+00
vertex 9.379439e+01 3.333110e+01 1.000000e+00
endloop
endfacet
facet normal 2.149343e-20 -2.891300e-16 1.000000e+00
outer loop
vertex 3.176142e+01 3.849816e+01 1.000000e+00
vertex 5.578977e+01 3.849995e+01 1.000000e+00
vertex 5.678844e+01 3.999997e+01 1.000000e+00
endloop
endfacet
facet normal -1.314182e-17 1.329489e-16 1.000000e+00
outer loop
vertex 5.680001e+01 2.700000e+01 1.000000e+00
vertex 1.567000e+02 2.708894e+01 1.000000e+00
vertex 8.779439e+01 3.332576e+01 1.000000e+00
endloop
endfacet
facet normal 1.028053e-18 -1.154744e-15 1.000000e+00
outer loop
vertex 1.257897e+02 3.855959e+01 1.000000e+00
vertex 1.517897e+02 3.858274e+01 1.000000e+00
vertex 1.552884e+02 4.008811e+01 1.000000e+00
endloop
endfacet
facet normal -2.452143e-19 2.754330e-16 1.000000e+00
outer loop
vertex 1.257944e+02 3.335959e+01 1.000000e+00
vertex 1.197944e+02 3.335425e+01 1.000000e+00
vertex 1.567000e+02 2.708894e+01 1.000000e+00
endloop
endfacet
facet normal -2.452143e-19 2.754330e-16 1.000000e+00
outer loop
vertex 9.379439e+01 3.333110e+01 1.000000e+00
vertex 8.779439e+01 3.332576e+01 1.000000e+00
vertex 1.567000e+02 2.708894e+01 1.000000e+00
endloop
endfacet
facet normal 2.570894e-19 -2.887716e-16 1.000000e+00
outer loop
vertex 5.678844e+01 3.999997e+01 1.000000e+00
vertex 6.178977e+01 3.850261e+01 1.000000e+00
vertex 8.778976e+01 3.852576e+01 1.000000e+00
endloop
endfacet
facet normal -6.130357e-20 6.885826e-17 1.000000e+00
outer loop
vertex 8.779439e+01 3.332576e+01 1.000000e+00
vertex 6.179440e+01 3.330261e+01 1.000000e+00
vertex 5.680001e+01 2.700000e+01 1.000000e+00
endloop
endfacet
facet normal -4.509550e-16 2.335205e-16 1.000000e+00
outer loop
vertex 2.600000e+01 4.000000e+01 1.000000e+00
vertex 2.600000e+01 2.700000e+01 1.000000e+00
vertex 2.926142e+01 3.329818e+01 1.000000e+00
endloop
endfacet
facet normal -5.019489e-21 6.883819e-17 1.000000e+00
outer loop
vertex 5.680001e+01 2.700000e+01 1.000000e+00
vertex 5.579440e+01 3.329993e+01 1.000000e+00
vertex 3.176143e+01 3.329818e+01 1.000000e+00
endloop
endfacet
facet normal 0.000000e+00 0.000000e+00 1.000000e+00
outer loop
vertex 1.257897e+02 3.855959e+01 1.000000e+00
vertex 1.197897e+02 3.855425e+01 1.000000e+00
vertex 1.197944e+02 3.335425e+01 1.000000e+00
endloop
endfacet
facet normal 2.570894e-19 -2.887716e-16 1.000000e+00
outer loop
vertex 8.778976e+01 3.852576e+01 1.000000e+00
vertex 9.378976e+01 3.853110e+01 1.000000e+00
vertex 5.678844e+01 3.999997e+01 1.000000e+00
endloop
endfacet
facet normal -9.308112e-16 0.000000e+00 1.000000e+00
outer loop
vertex 2.926142e+01 3.329818e+01 1.000000e+00
vertex 2.926142e+01 3.849816e+01 1.000000e+00
vertex 2.600000e+01 4.000000e+01 1.000000e+00
endloop
endfacet
facet normal -1.408054e-17 1.288055e-17 1.000000e+00
outer loop
vertex 3.176143e+01 3.329818e+01 1.000000e+00
vertex 2.600000e+01 2.700000e+01 1.000000e+00
vertex 5.680001e+01 2.700000e+01 1.000000e+00
endloop
endfacet
facet normal 0.000000e+00 0.000000e+00 1.000000e+00
outer loop
vertex 9.378976e+01 3.853110e+01 1.000000e+00
vertex 8.778976e+01 3.852576e+01 1.000000e+00
vertex 8.779439e+01 3.332576e+01 1.000000e+00
endloop
endfacet
facet normal 0.000000e+00 0.000000e+00 1.000000e+00
outer loop
vertex 3.176143e+01 3.329818e+01 1.000000e+00
vertex 2.926142e+01 3.329818e+01 1.000000e+00
vertex 2.600000e+01 2.700000e+01 1.000000e+00
endloop
endfacet
facet normal -3.078615e-20 6.883407e-17 1.000000e+00
outer loop
vertex 5.579440e+01 3.329993e+01 1.000000e+00
vertex 5.680001e+01 2.700000e+01 1.000000e+00
vertex 6.179440e+01 3.330261e+01 1.000000e+00
endloop
endfacet
facet normal -4.633551e-16 -1.726169e-17 1.000000e+00
outer loop
vertex 1.517944e+02 3.338274e+01 1.000000e+00
vertex 1.556982e+02 2.908805e+01 1.000000e+00
vertex 1.552884e+02 4.008811e+01 1.000000e+00
endloop
endfacet
facet normal 9.999996e-01 8.902861e-04 0.000000e+00
outer loop
vertex 5.579440e+01 3.329993e+01 4.000000e+00
vertex 5.579440e+01 3.329993e+01 1.000000e+00
vertex 5.578977e+01 3.849995e+01 1.000000e+00
endloop
endfacet
facet normal 9.999996e-01 8.902861e-04 -0.000000e+00
outer loop
vertex 5.578977e+01 3.849995e+01 1.000000e+00
vertex 5.578977e+01 3.849995e+01 4.000000e+00
vertex 5.579440e+01 3.329993e+01 4.000000e+00
endloop
endfacet
facet normal -7.433830e-05 1.000000e+00 2.085844e-20
outer loop
vertex 3.176142e+01 3.849816e+01 4.000000e+00
vertex 5.578977e+01 3.849995e+01 4.000000e+00
vertex 5.578977e+01 3.849995e+01 1.000000e+00
endloop
endfacet
facet normal -7.433830e-05 1.000000e+00 2.085844e-20
outer loop
vertex 5.578977e+01 3.849995e+01 1.000000e+00
vertex 3.176142e+01 3.849816e+01 1.000000e+00
vertex 3.176142e+01 3.849816e+01 4.000000e+00
endloop
endfacet
facet normal 7.291722e-05 -1.000000e+00 4.050748e-16
outer loop
vertex 5.579440e+01 3.329993e+01 4.000000e+00
vertex 3.176142e+01 3.329818e+01 4.000000e+00
vertex 3.176143e+01 3.329818e+01 1.000000e+00
endloop
endfacet
facet normal 7.291722e-05 -1.000000e+00 -5.209134e-21
outer loop
vertex 3.176143e+01 3.329818e+01 1.000000e+00
vertex 5.579440e+01 3.329993e+01 1.000000e+00
vertex 5.579440e+01 3.329993e+01 4.000000e+00
endloop
endfacet
facet normal -1.000000e+00 0.000000e+00 -0.000000e+00
outer loop
vertex 2.926142e+01 3.849816e+01 8.500000e+00
vertex 2.926142e+01 3.849816e+01 1.000000e+00
vertex 2.926142e+01 3.329818e+01 1.000000e+00
endloop
endfacet
facet normal -1.000000e+00 0.000000e+00 0.000000e+00
outer loop
vertex 2.926142e+01 3.329818e+01 1.000000e+00
vertex 2.926142e+01 3.329818e+01 8.500000e+00
vertex 2.926142e+01 3.849816e+01 8.500000e+00
endloop
endfacet
facet normal -0.000000e+00 1.000000e+00 0.000000e+00
outer loop
vertex 2.926142e+01 3.849816e+01 8.500000e+00
vertex 3.176142e+01 3.849816e+01 8.500000e+00
vertex 3.176142e+01 3.849816e+01 4.000000e+00
endloop
endfacet
facet normal 0.000000e+00 1.000000e+00 0.000000e+00
outer loop
vertex 3.176142e+01 3.849816e+01 4.000000e+00
vertex 2.926142e+01 3.849816e+01 1.000000e+00
vertex 2.926142e+01 3.849816e+01 8.500000e+00
endloop
endfacet
facet normal 0.000000e+00 1.000000e+00 0.000000e+00
outer loop
vertex 3.176142e+01 3.849816e+01 4.000000e+00
vertex 3.176142e+01 3.849816e+01 1.000000e+00
vertex 2.926142e+01 3.849816e+01 1.000000e+00
endloop
endfacet
facet normal -1.063287e-10 -1.000000e+00 -0.000000e+00
outer loop
vertex 2.926142e+01 3.329818e+01 8.500000e+00
vertex 2.926142e+01 3.329818e+01 1.000000e+00
vertex 3.176142e+01 3.329818e+01 4.000000e+00
endloop
endfacet
facet normal 0.000000e+00 -1.000000e+00 -8.860736e-11
outer loop
vertex 2.926142e+01 3.329818e+01 1.000000e+00
vertex 3.176143e+01 3.329818e+01 1.000000e+00
vertex 3.176142e+01 3.329818e+01 4.000000e+00
endloop
endfacet
facet normal -6.892689e-27 -1.000000e+00 5.907157e-11
outer loop
vertex 3.176142e+01 3.329818e+01 4.000000e+00
vertex 3.176142e+01 3.329818e+01 8.500000e+00
vertex 2.926142e+01 3.329818e+01 8.500000e+00
endloop
endfacet
facet normal 1.000000e+00 0.000000e+00 -0.000000e+00
outer loop
vertex 3.176142e+01 3.849816e+01 4.000000e+00
vertex 3.176142e+01 3.849816e+01 8.500000e+00
vertex 3.176142e+01 3.329818e+01 8.500000e+00
endloop
endfacet
facet normal 1.000000e+00 7.010695e-07 8.101220e-07
outer loop
vertex 3.176142e+01 3.329818e+01 8.500000e+00
vertex 3.176142e+01 3.329818e+01 4.000000e+00
vertex 3.176142e+01 3.849816e+01 4.000000e+00
endloop
endfacet
facet normal 0.000000e+00 0.000000e+00 1.000000e+00
outer loop
vertex 2.926142e+01 3.329818e+01 8.500000e+00
vertex 3.176142e+01 3.329818e+01 8.500000e+00
vertex 3.176142e+01 3.849816e+01 8.500000e+00
endloop
endfacet
facet normal 0.000000e+00 0.000000e+00 1.000000e+00
outer loop
vertex 3.176142e+01 3.849816e+01 8.500000e+00
vertex 2.926142e+01 3.849816e+01 8.500000e+00
vertex 2.926142e+01 3.329818e+01 8.500000e+00
endloop
endfacet
facet normal 3.609048e-17 3.213087e-20 1.000000e+00
outer loop
vertex 3.176142e+01 3.329818e+01 4.000000e+00
vertex 5.579440e+01 3.329993e+01 4.000000e+00
vertex 5.578977e+01 3.849995e+01 4.000000e+00
endloop
endfacet
facet normal 3.609743e-17 2.530681e-23 1.000000e+00
outer loop
vertex 5.578977e+01 3.849995e+01 4.000000e+00
vertex 3.176142e+01 3.849816e+01 4.000000e+00
vertex 3.176142e+01 3.329818e+01 4.000000e+00
endloop
endfacet
facet normal 9.999996e-01 8.902861e-04 0.000000e+00
outer loop
vertex 8.779439e+01 3.332576e+01 4.000000e+00
vertex 8.779439e+01 3.332576e+01 1.000000e+00
vertex 8.778976e+01 3.852576e+01 1.000000e+00
endloop
endfacet
facet normal 9.999996e-01 8.902861e-04 -0.000000e+00
outer loop
vertex 8.778976e+01 3.852576e+01 1.000000e+00
vertex 8.778976e+01 3.852576e+01 4.000000e+00
vertex 8.779439e+01 3.332576e+01 4.000000e+00
endloop
endfacet
facet normal -8.902861e-04 9.999996e-01 2.315405e-15
outer loop
vertex 8.778976e+01 3.852576e+01 1.000000e+00
vertex 6.178977e+01 3.850261e+01 1.000000e+00
vertex 6.178977e+01 3.850261e+01 4.000000e+00
endloop
endfacet
facet normal -8.902861e-04 9.999996e-01 2.945417e-19
outer loop
vertex 6.178977e+01 3.850261e+01 4.000000e+00
vertex 8.778976e+01 3.852576e+01 4.000000e+00
vertex 8.778976e+01 3.852576e+01 1.000000e+00
endloop
endfacet
facet normal -9.999996e-01 -8.902861e-04 0.000000e+00
outer loop
vertex 6.179440e+01 3.330261e+01 1.000000e+00
vertex 6.179440e+01 3.330261e+01 4.000000e+00
vertex 6.178977e+01 3.850261e+01 4.000000e+00
endloop
endfacet
facet normal -9.999996e-01 -8.902861e-04 2.310905e-15
outer loop
vertex 6.178977e+01 3.850261e+01 4.000000e+00
vertex 6.178977e+01 3.850261e+01 1.000000e+00
vertex 6.179440e+01 3.330261e+01 1.000000e+00
endloop
endfacet
facet normal 8.902861e-04 -9.999996e-01 0.000000e+00
outer loop
vertex 6.179440e+01 3.330261e+01 4.000000e+00
vertex 6.179440e+01 3.330261e+01 1.000000e+00
vertex 8.779439e+01 3.332576e+01 1.000000e+00
endloop
endfacet
facet normal 8.902861e-04 -9.999996e-01 0.000000e+00
outer loop
vertex 8.779439e+01 3.332576e+01 1.000000e+00
vertex 8.779439e+01 3.332576e+01 4.000000e+00
vertex 6.179440e+01 3.330261e+01 4.000000e+00
endloop
endfacet
facet normal 0.000000e+00 0.000000e+00 1.000000e+00
outer loop
vertex 6.179440e+01 3.330261e+01 4.000000e+00
vertex 8.779439e+01 3.332576e+01 4.000000e+00
vertex 8.778976e+01 3.852576e+01 4.000000e+00
endloop
endfacet
facet normal 0.000000e+00 0.000000e+00 1.000000e+00
outer loop
vertex 8.778976e+01 3.852576e+01 4.000000e+00
vertex 6.178977e+01 3.850261e+01 4.000000e+00
vertex 6.179440e+01 3.330261e+01 4.000000e+00
endloop
endfacet
facet normal 9.999996e-01 8.902861e-04 4.625927e-15
outer loop
vertex 1.197944e+02 3.335425e+01 4.000000e+00
vertex 1.197944e+02 3.335425e+01 1.000000e+00
vertex 1.197897e+02 3.855425e+01 1.000000e+00
endloop
endfacet
facet normal 9.999996e-01 8.902861e-04 -0.000000e+00
outer loop
vertex 1.197897e+02 3.855425e+01 1.000000e+00
vertex 1.197897e+02 3.855425e+01 4.000000e+00
vertex 1.197944e+02 3.335425e+01 4.000000e+00
endloop
endfacet
facet normal -8.902861e-04 9.999996e-01 0.000000e+00
outer loop
vertex 1.197897e+02 3.855425e+01 4.000000e+00
vertex 1.197897e+02 3.855425e+01 1.000000e+00
vertex 9.378976e+01 3.853110e+01 1.000000e+00
endloop
endfacet
facet normal -8.902861e-04 9.999996e-01 2.312964e-15
outer loop
vertex 9.378976e+01 3.853110e+01 1.000000e+00
vertex 9.378976e+01 3.853110e+01 4.000000e+00
vertex 1.197897e+02 3.855425e+01 4.000000e+00
endloop
endfacet
facet normal -9.999996e-01 -8.902861e-04 0.000000e+00
outer loop
vertex 9.379439e+01 3.333110e+01 1.000000e+00
vertex 9.379439e+01 3.333110e+01 4.000000e+00
vertex 9.378976e+01 3.853110e+01 4.000000e+00
endloop
endfacet
facet normal -9.999996e-01 -8.902861e-04 -2.059200e-18
outer loop
vertex 9.378976e+01 3.853110e+01 4.000000e+00
vertex 9.378976e+01 3.853110e+01 1.000000e+00
vertex 9.379439e+01 3.333110e+01 1.000000e+00
endloop
endfacet
facet normal 8.902861e-04 -9.999996e-01 4.634653e-18
outer loop
vertex 9.379439e+01 3.333110e+01 1.000000e+00
vertex 1.197944e+02 3.335425e+01 1.000000e+00
vertex 1.197944e+02 3.335425e+01 4.000000e+00
endloop
endfacet
facet normal 8.902861e-04 -9.999996e-01 5.162521e-19
outer loop
vertex 1.197944e+02 3.335425e+01 4.000000e+00
vertex 9.379439e+01 3.333110e+01 4.000000e+00
vertex 9.379439e+01 3.333110e+01 1.000000e+00
endloop
endfacet
facet normal 0.000000e+00 0.000000e+00 1.000000e+00
outer loop
vertex 9.379439e+01 3.333110e+01 4.000000e+00
vertex 1.197944e+02 3.335425e+01 4.000000e+00
vertex 1.197897e+02 3.855425e+01 4.000000e+00
endloop
endfacet
facet normal 0.000000e+00 0.000000e+00 1.000000e+00
outer loop
vertex 1.197897e+02 3.855425e+01 4.000000e+00
vertex 9.378976e+01 3.853110e+01 4.000000e+00
vertex 9.379439e+01 3.333110e+01 4.000000e+00
endloop
endfacet
facet normal 9.999996e-01 8.902861e-04 0.000000e+00
outer loop
vertex 1.517944e+02 3.338274e+01 8.500000e+00
vertex 1.517944e+02 3.338274e+01 1.000000e+00
vertex 1.517897e+02 3.858274e+01 1.000000e+00
endloop
endfacet
facet normal 9.999996e-01 8.902861e-04 -0.000000e+00
outer loop
vertex 1.517897e+02 3.858274e+01 1.000000e+00
vertex 1.517897e+02 3.858274e+01 8.500000e+00
vertex 1.517944e+02 3.338274e+01 8.500000e+00
endloop
endfacet
facet normal -9.999996e-01 -8.902861e-04 -0.000000e+00
outer loop
vertex 1.257897e+02 3.855959e+01 4.000000e+00
vertex 1.257897e+02 3.855959e+01 1.000000e+00
vertex 1.257944e+02 3.335959e+01 1.000000e+00
endloop
endfacet
facet normal -9.999996e-01 -8.902861e-04 0.000000e+00
outer loop
vertex 1.257944e+02 3.335959e+01 1.000000e+00
vertex 1.257944e+02 3.335959e+01 4.000000e+00
vertex 1.257897e+02 3.855959e+01 4.000000e+00
endloop
endfacet
facet normal -8.902861e-04 9.999996e-01 0.000000e+00
outer loop
vertex 1.517897e+02 3.858274e+01 8.500000e+00
vertex 1.517897e+02 3.858274e+01 1.000000e+00
vertex 1.492897e+02 3.858051e+01 4.000000e+00
endloop
endfacet
facet normal -8.902861e-04 9.999996e-01 0.000000e+00
outer loop
vertex 1.257897e+02 3.855959e+01 1.000000e+00
vertex 1.257897e+02 3.855959e+01 4.000000e+00
vertex 1.492897e+02 3.858051e+01 4.000000e+00
endloop
endfacet
facet normal -8.902861e-04 9.999996e-01 6.213075e-16
outer loop
vertex 1.492897e+02 3.858051e+01 4.000000e+00
vertex 1.517897e+02 3.858274e+01 1.000000e+00
vertex 1.257897e+02 3.855959e+01 1.000000e+00
endloop
endfacet
facet normal -8.902861e-04 9.999996e-01 1.541976e-15
outer loop
vertex 1.492897e+02 3.858051e+01 4.000000e+00
vertex 1.492897e+02 3.858051e+01 8.500000e+00
vertex 1.517897e+02 3.858274e+01 8.500000e+00
endloop
endfacet
facet normal 8.902861e-04 -9.999996e-01 3.572908e-16
outer loop
vertex 1.257944e+02 3.335959e+01 1.000000e+00
vertex 1.517944e+02 3.338274e+01 1.000000e+00
vertex 1.492944e+02 3.338051e+01 4.000000e+00
endloop
endfacet
facet normal 8.902861e-04 -9.999996e-01 -2.752027e-20
outer loop
vertex 1.517944e+02 3.338274e+01 8.500000e+00
vertex 1.492944e+02 3.338051e+01 8.500000e+00
vertex 1.492944e+02 3.338051e+01 4.000000e+00
endloop
endfacet
facet normal 8.902861e-04 -9.999996e-01 -1.651216e-20
outer loop
vertex 1.492944e+02 3.338051e+01 4.000000e+00
vertex 1.517944e+02 3.338274e+01 1.000000e+00
vertex 1.517944e+02 3.338274e+01 8.500000e+00
endloop
endfacet
facet normal 8.902861e-04 -9.999996e-01 -4.731471e-19
outer loop
vertex 1.492944e+02 3.338051e+01 4.000000e+00
vertex 1.257944e+02 3.335959e+01 4.000000e+00
vertex 1.257944e+02 3.335959e+01 1.000000e+00
endloop
endfacet
facet normal 0.000000e+00 0.000000e+00 1.000000e+00
outer loop
vertex 1.492897e+02 3.858051e+01 4.000000e+00
vertex 1.257897e+02 3.855959e+01 4.000000e+00
vertex 1.257944e+02 3.335959e+01 4.000000e+00
endloop
endfacet
facet normal 0.000000e+00 0.000000e+00 1.000000e+00
outer loop
vertex 1.257944e+02 3.335959e+01 4.000000e+00
vertex 1.492944e+02 3.338051e+01 4.000000e+00
vertex 1.492897e+02 3.858051e+01 4.000000e+00
endloop
endfacet
facet normal -9.999996e-01 -8.902861e-04 0.000000e+00
outer loop
vertex 1.492944e+02 3.338051e+01 4.000000e+00
vertex 1.492944e+02 3.338051e+01 8.500000e+00
vertex 1.492897e+02 3.858051e+01 8.500000e+00
endloop
endfacet
facet normal -9.999996e-01 -8.902861e-04 -1.372800e-18
outer loop
vertex 1.492897e+02 3.858051e+01 8.500000e+00
vertex 1.492897e+02 3.858051e+01 4.000000e+00
vertex 1.492944e+02 3.338051e+01 4.000000e+00
endloop
endfacet
facet normal 0.000000e+00 0.000000e+00 1.000000e+00
outer loop
vertex 1.517944e+02 3.338274e+01 8.500000e+00
vertex 1.517897e+02 3.858274e+01 8.500000e+00
vertex 1.492897e+02 3.858051e+01 8.500000e+00
endloop
endfacet
facet normal 0.000000e+00 0.000000e+00 1.000000e+00
outer loop
vertex 1.492897e+02 3.858051e+01 8.500000e+00
vertex 1.492944e+02 3.338051e+01 8.500000e+00
vertex 1.517944e+02 3.338274e+01 8.500000e+00
endloop
endfacet
endsolid SHAPR3D_SOLID
